# xmcd CD database file
#
# Track frame offsets:
#	150
#	143548
#	176271
#	214421
#
# Disc length: 3181 seconds
#
# Revision: 0
# Processed by: cddbd v1.5.2PL0 Copyright (c) Steve Scherf et al.
# Submitted via: CDex 1.70beta2
#
DISCID=310c6b04
DTITLE=Yoko Miura and Matt Wilson - Dialogue
DYEAR=2001
DGENRE=Jazz
TTITLE0=Improvisation
TTITLE1=Anxiety
TTITLE2=Manickptra Market
TTITLE3=Itotsumugi
EXTD=YEAR: 2001
EXTT0=
EXTT1=
EXTT2=
EXTT3=
PLAYORDER=
